<?xml version="1.0" standalone="no"?>
<!DOCTYPE svg PUBLIC "-//W3C//DTD SVG 20010904//EN"
 "http://www.w3.org/TR/2001/REC-SVG-20010904/DTD/svg10.dtd">
<svg version="1.0" xmlns="http://www.w3.org/2000/svg"
 width="611.000000pt" height="223.000000pt" viewBox="0 0 611.000000 223.000000"
 preserveAspectRatio="xMidYMid meet">
<metadata>
Created by potrace 1.16, written by Peter Selinger 2001-2019
</metadata>
<g transform="translate(0.000000,223.000000) scale(0.100000,-0.100000)"
fill="#000000" stroke="none">
<path d="M485 2156 c-226 -31 -313 -95 -352 -255 -38 -162 -58 -935 -33 -1311
26 -386 72 -480 262 -531 107 -30 347 -38 903 -34 686 7 851 21 948 86 125 83
163 303 161 949 -1 374 -16 671 -39 792 -31 163 -93 237 -230 275 -138 38
-1390 60 -1620 29z m123 -125 c107 -55 529 -408 510 -426 -3 -3 -37 -8 -74
-11 -38 -3 -110 -9 -161 -15 -51 -5 -152 -9 -226 -9 -158 0 -230 -16 -298 -66
l-47 -34 -7 65 c-10 93 0 323 17 366 23 60 61 108 103 129 52 26 133 26 183 1z
m1458 -13 c92 -62 125 -160 127 -374 3 -289 -63 -664 -180 -1014 -92 -276
-166 -388 -297 -454 -61 -30 -213 -69 -221 -57 -2 5 5 23 16 42 78 134 114
257 106 359 -7 78 -53 217 -98 297 -37 65 -160 193 -229 240 -100 68 -248 133
-335 149 -186 33 -277 43 -432 49 -160 6 -186 5 -208 -9 -32 -21 -32 -21 -50
15 -25 48 -16 80 30 106 51 29 67 29 104 -3 l30 -25 48 33 48 33 -67 6 c-38 3
-71 9 -74 12 -4 4 20 19 52 34 55 25 71 28 249 34 173 6 238 12 288 26 48 13
-17 -68 -95 -118 -27 -17 -47 -33 -45 -35 7 -8 104 30 182 71 67 35 238 146
255 164 3 4 25 20 50 36 24 17 119 91 210 165 215 176 228 185 302 220 91 43
167 42 234 -2z m-1337 -869 c95 -13 126 -25 151 -57 22 -27 26 -82 9 -113 -10
-19 -9 -20 18 -6 15 8 54 20 86 28 118 26 265 -29 376 -140 67 -67 112 -154
136 -266 16 -70 17 -90 6 -165 -22 -152 -80 -241 -190 -294 -63 -30 -73 -31
-213 -34 -81 -2 -170 1 -197 7 -147 31 -262 131 -341 296 -53 111 -80 186
-139 391 -35 121 -81 322 -81 352 0 6 12 13 28 16 39 7 261 -3 351 -15z"/>
<path d="M1476 1589 c-125 -104 -139 -119 -149 -157 -7 -30 16 -96 48 -138 14
-18 25 -36 25 -39 0 -4 13 -24 29 -44 98 -124 220 -416 246 -589 4 -23 11 -40
16 -36 14 8 11 140 -6 229 -31 166 -58 242 -156 435 -33 66 -44 99 -47 147 -5
78 9 121 70 212 27 40 48 75 46 76 -2 2 -57 -42 -122 -96z"/>
<path d="M942 930 c-52 -37 -60 -73 -38 -170 20 -85 15 -105 -47 -219 -36 -66
-37 -72 -16 -58 38 27 81 21 130 -17 50 -40 65 -39 27 2 -19 20 -24 32 -18 47
7 19 4 20 -41 17 -55 -4 -62 8 -33 57 23 39 71 68 134 82 59 12 105 32 115 50
4 6 -7 4 -23 -5 -17 -9 -41 -16 -54 -16 -65 1 -167 102 -154 154 8 32 40 63
74 69 37 7 120 -20 170 -56 97 -70 148 -180 140 -303 -7 -103 -37 -161 -102
-193 -44 -22 -53 -23 -92 -13 -62 17 -94 15 -137 -8 -40 -22 -88 -26 -118 -10
-29 16 -25 -15 6 -45 27 -28 71 -33 101 -10 22 16 54 20 54 6 0 -6 -5 -13 -10
-16 -24 -15 5 -25 51 -19 40 5 49 4 49 -8 0 -9 -14 -21 -31 -28 -27 -12 -29
-14 -14 -23 27 -15 120 -1 168 25 51 28 109 110 133 188 22 70 23 189 1 260
-46 154 -201 290 -330 290 -44 0 -62 -6 -95 -30z"/>
<path d="M4830 1776 c-123 -35 -213 -102 -254 -191 -21 -44 -26 -68 -26 -137
0 -178 88 -274 353 -389 108 -46 141 -99 117 -188 -12 -47 -46 -76 -104 -92
-82 -22 -212 32 -251 105 -16 30 -39 45 -67 46 -3 0 -9 -22 -13 -50 -8 -56
-25 -68 -25 -16 0 18 -5 57 -10 87 -10 51 -36 232 -65 454 -8 61 -20 164 -26
230 -6 66 -12 121 -12 122 -1 0 -37 3 -80 4 l-77 4 -84 -175 c-45 -96 -119
-247 -163 -335 -118 -235 -124 -245 -136 -207 -3 9 -86 174 -184 366 l-178
348 -82 2 -82 1 -6 -75 c-4 -41 -10 -100 -15 -130 -5 -30 -12 -80 -15 -110
-16 -168 -74 -564 -101 -692 -22 -104 -27 -98 76 -98 l90 0 0 93 c0 50 5 133
10 182 5 50 14 142 20 205 14 146 21 190 30 190 4 0 84 -151 176 -335 l169
-335 40 0 40 0 37 78 c20 42 89 185 153 317 65 132 121 250 126 263 7 18 29
32 29 18 0 -2 9 -71 20 -152 19 -147 50 -456 50 -501 0 -23 0 -23 145 -23
l145 0 -6 26 c-6 25 -5 26 24 19 17 -3 48 -15 69 -24 21 -10 73 -27 115 -37
69 -16 88 -16 170 -5 118 15 189 47 251 113 l47 50 0 -36 c0 -35 3 -38 54 -61
150 -66 250 -84 367 -65 141 23 223 76 279 181 67 127 51 264 -44 366 -47 51
-76 69 -230 146 -220 111 -247 140 -211 233 22 59 62 84 131 84 79 0 127 -25
178 -92 18 -24 37 -38 51 -38 19 0 25 10 43 79 34 123 39 113 -78 162 -47 20
-71 24 -170 23 -107 0 -120 -2 -180 -31 -84 -39 -152 -100 -184 -165 -22 -44
-26 -65 -26 -140 0 -74 4 -96 26 -143 44 -93 138 -163 325 -244 83 -35 117
-69 126 -125 21 -131 -126 -203 -271 -132 -43 21 -65 40 -85 72 -14 23 -34 45
-43 47 -14 4 -18 16 -18 61 0 80 -31 154 -89 212 -38 38 -89 69 -225 137 -188
94 -215 117 -218 181 -3 83 51 136 141 136 67 0 136 -35 175 -90 36 -49 72
-55 82 -12 3 15 12 49 20 76 25 87 23 90 -63 126 -63 26 -92 32 -167 35 -54 2
-109 -2 -136 -9z"/>
<path d="M2835 1620 c9 -177 8 -800 -1 -892 l-7 -68 134 0 134 0 0 552 0 553
-134 0 -133 0 7 -145z"/>
</g>
</svg>
