<?xml version="1.0" standalone="no"?>
<!DOCTYPE svg PUBLIC "-//W3C//DTD SVG 20010904//EN"
 "http://www.w3.org/TR/2001/REC-SVG-20010904/DTD/svg10.dtd">
<svg version="1.0" xmlns="http://www.w3.org/2000/svg"
 width="201.000000pt" height="251.000000pt" viewBox="0 0 201.000000 251.000000"
 preserveAspectRatio="xMidYMid meet">
<metadata>
Created by potrace 1.16, written by Peter Selinger 2001-2019
</metadata>
<g transform="translate(0.000000,251.000000) scale(0.100000,-0.100000)"
fill="#000000" stroke="none">
<path d="M640 2500 c-226 -5 -299 -10 -352 -24 -119 -32 -177 -107 -197 -253
-21 -151 -34 -503 -27 -728 16 -570 45 -649 251 -696 79 -18 1180 -19 1324 -1
162 20 233 69 266 186 38 134 54 568 36 951 -16 338 -38 431 -115 490 -60 46
-114 55 -396 70 -277 15 -326 15 -790 5z m-152 -110 c52 -23 268 -188 359
-273 55 -51 62 -62 46 -68 -26 -9 -294 -29 -399 -29 -102 0 -147 -10 -198 -45
-20 -14 -39 -25 -41 -25 -3 0 -5 71 -5 158 0 131 3 164 19 197 43 94 128 126
219 85z m1208 -12 c75 -52 98 -124 97 -318 -1 -306 -105 -764 -226 -993 -58
-111 -173 -189 -300 -204 l-49 -6 31 50 c125 203 88 437 -99 623 -118 117
-255 182 -455 216 -131 22 -430 31 -450 14 -14 -12 -18 -11 -26 1 -31 48 -16
88 42 108 24 8 33 6 57 -14 l29 -24 47 34 48 34 -68 3 -69 3 50 24 c45 22 69
25 242 31 105 4 196 11 202 14 6 4 11 3 11 -2 0 -13 -65 -70 -108 -95 -49 -29
-33 -31 40 -4 126 45 299 159 537 352 69 56 145 114 169 130 86 57 185 66 248
23z m-1176 -688 c63 -6 130 -16 148 -21 45 -15 66 -49 59 -98 l-5 -38 49 18
c91 35 183 18 288 -52 226 -151 243 -513 27 -623 -50 -26 -70 -30 -164 -34
-184 -7 -275 21 -367 115 -86 87 -171 289 -238 568 -38 154 -39 163 -19 168
31 8 105 7 222 -3z"/>
<path d="M1230 2059 c-129 -105 -153 -134 -147 -177 4 -20 38 -82 81 -146 110
-164 151 -254 196 -431 l29 -110 0 95 c1 144 -26 249 -104 409 -36 74 -68 154
-72 177 -7 56 15 115 73 194 24 33 41 60 36 59 -4 0 -45 -32 -92 -70z"/>
<path d="M762 1505 c-40 -33 -46 -63 -27 -136 l16 -62 -40 -83 c-32 -67 -36
-82 -21 -74 29 16 68 12 88 -8 22 -22 52 -35 52 -23 0 5 -7 14 -16 22 -10 8
-13 21 -9 36 5 20 3 23 -11 15 -21 -12 -64 -3 -64 13 0 8 11 27 25 44 26 30
58 44 126 55 20 4 46 18 59 31 l24 26 -40 -23 -40 -22 -45 22 c-102 49 -105
163 -4 162 38 0 100 -29 143 -65 108 -91 124 -281 29 -361 -30 -25 -35 -26
-103 -20 -63 6 -78 4 -119 -16 -44 -22 -48 -22 -76 -6 -27 16 -29 16 -29 -1 0
-43 61 -64 115 -39 27 12 49 3 25 -12 -23 -14 13 -24 56 -15 47 8 42 -15 -7
-31 l-34 -12 46 -7 c92 -14 164 24 212 113 73 133 51 293 -55 408 -83 90 -213
123 -276 69z"/>
<path d="M1205 687 c-89 -42 -134 -122 -120 -211 10 -55 27 -87 69 -124 33
-28 152 -92 173 -92 22 0 57 -52 57 -85 0 -98 -143 -114 -215 -25 -38 47 -59
51 -59 13 0 -119 -64 256 -77 450 l-6 87 -52 0 -53 0 -108 -217 c-60 -120
-114 -219 -120 -221 -6 -1 -62 97 -125 218 l-114 220 -50 0 -51 0 -28 -212
c-29 -226 -61 -422 -72 -451 -5 -15 1 -17 53 -17 l59 0 13 168 c7 92 16 185
19 207 l7 40 46 -85 c26 -47 74 -140 109 -207 56 -112 64 -123 89 -123 25 0
34 14 131 211 94 189 105 208 112 182 10 -42 38 -291 38 -345 l0 -48 96 0 c81
0 95 2 90 15 -7 20 -1 19 64 -7 65 -25 183 -30 244 -9 21 7 56 29 77 48 34 31
39 33 39 15 0 -40 157 -88 252 -77 115 14 200 86 212 182 15 108 -25 161 -176
238 -62 32 -123 67 -135 78 -51 46 -10 127 64 127 43 0 96 -28 113 -59 19 -37
46 -26 59 23 6 24 13 50 16 58 4 11 -8 21 -44 37 -72 30 -188 29 -256 -3 -132
-61 -164 -210 -69 -315 30 -34 165 -111 192 -111 6 0 22 -14 37 -32 21 -25 25
-38 21 -62 -13 -62 -67 -87 -144 -67 -45 13 -112 83 -112 118 0 32 -21 85 -46
120 -16 20 -62 51 -136 88 -131 67 -158 88 -158 126 0 89 142 106 196 24 28
-43 50 -32 66 34 l15 59 -36 17 c-24 12 -67 20 -126 22 -79 4 -96 1 -140 -20z"/>
<path d="M5 360 l0 -340 85 0 85 0 0 340 0 340 -85 0 -85 0 0 -340z"/>
</g>
</svg>
